<svg width="43" height="54" viewBox="0 0 43 54" fill="none" xmlns="http://www.w3.org/2000/svg">
<path fill-rule="evenodd" clip-rule="evenodd" d="M38.681 43.6216C40.504 45.9248 39.779 49.3197 37.173 50.6763L32.578 53.0691C30.536 54.1324 28.024 53.5526 26.655 51.7023L17.94 39.9277L11.543 47.5577C9.645 49.8202 6.09899 49.6006 4.49699 47.1206L2.281 43.694C1.286 42.1563 1.352 40.1621 2.446 38.6923L9.83299 28.7681L1.47799 17.0513C0.538993 15.7354 0.346999 14.0267 0.967999 12.5342L3.007 7.64116C4.125 4.95514 7.724 4.47048 9.514 6.76356L18.075 17.7318L29.852 2.55335C31.597 0.304437 34.927 0.120991 36.909 2.16495L40.985 6.36836C42.659 8.09638 42.751 10.8118 41.197 12.6486L27.229 29.1531L38.681 43.6216ZM31.932 4.167C32.695 3.18296 34.153 3.10369 35.019 3.99715L35.021 3.99488L39.097 8.19829C39.829 8.95473 39.87 10.1426 39.19 10.9466L24.139 28.7307C23.959 28.9425 23.953 29.2527 24.127 29.4713L36.619 45.2533C37.416 46.2612 37.099 47.7468 35.959 48.3402L31.364 50.7329C30.47 51.1984 29.372 50.9447 28.773 50.1351L18.512 36.2735C18.287 35.9689 17.837 35.9553 17.594 36.2452L9.52699 45.8648C8.76799 46.7707 7.34899 46.6824 6.70799 45.6904L4.49299 42.2638C4.09599 41.6478 4.122 40.8506 4.559 40.2629L12.836 29.1418C12.987 28.9379 12.99 28.6605 12.842 28.4533L3.621 15.5226C3.21 14.9462 3.12699 14.1999 3.39799 13.5465L5.43699 8.65351C5.78099 7.828 6.88799 7.67853 7.43899 8.38401L17.618 21.4257C17.852 21.7269 18.307 21.7258 18.541 21.4246L31.932 4.167Z" fill="#00E7A2"/>
</svg>
